#!OML:ASF F:\twosubjects\two\Thursday\Session 1\justin.ASF
:FULLY-SPECIFIED
:DEGREES
341
root 7.07377 9.52231 -18.0122 -24.6483 -0.573071 1.04465
lowerback 36.572 2.60588 -2.21639
upperback 12.1382 2.59653 1.32563
thorax -4.85082 1.16798 1.63422
lowerneck -22.6645 -4.59955 -10.7637
upperneck 10.1406 -4.12597 7.46531
head 7.14543 -1.72345 3.68366
rclavicle -1.07344e-014 -3.77691e-015
rhumerus 20.2532 23.7379 -75.2768
rradius 77.4658
rwrist 14.7209
rhand -9.37825 15.5992
rfingers 7.12502
rthumb 16.5823 -13.7123
lclavicle -1.07344e-014 -3.77691e-015
lhumerus 21.0163 -28.0926 77.9108
lradius 64.2569
lwrist -32.0696
lhand -35.8728 45.9806
lfingers 7.12502
lthumb -8.9871 75.7692
rfemur -67.7703 -20.3132 4.30044
rtibia 100.198
rfoot -6.06839 -2.55961
rtoes 0.226523
lfemur -63.5056 19.9594 0.802923
ltibia 95.576
lfoot -8.19238 -16.649
ltoes -21.7639
342
root 7.07376 9.51754 -18.01 -24.598 -0.607734 1.05272
lowerback 36.6149 2.63663 -2.30534
upperback 12.0754 2.60473 1.35764
thorax -4.9389 1.16928 1.70888
lowerneck -22.6445 -4.58145 -10.8951
upperneck 10.2026 -4.08749 7.59318
head 7.16522 -1.69946 3.75383
rclavicle -3.47873e-015 -8.94531e-015
rhumerus 20.1383 23.8128 -75.3209
rradius 77.508
rwrist 14.762
rhand -9.54138 15.519
rfingers 7.12502
rthumb 16.4252 -13.8056
lclavicle -3.47873e-015 -8.94531e-015
lhumerus 20.8683 -28.0156 78.0651
lradius 64.3199
lwrist -31.9387
lhand -35.609 45.8277
lfingers 7.12502
lthumb -8.73248 75.627
rfemur -67.8675 -20.298 4.35559
rtibia 100.203
rfoot -6.07315 -2.58176
rtoes -0.150966
lfemur -63.4489 20.0031 0.825791
ltibia 95.4629
lfoot -8.74558 -16.5797
ltoes -24.1479
343
root 7.07412 9.52104 -18.012 -24.6074 -0.570641 1.15704
lowerback 36.6062 2.69012 -2.39672
upperback 12.1613 2.63916 1.34239
thorax -4.84512 1.18333 1.73005
lowerneck -22.9015 -4.64926 -10.8942
upperneck 10.2542 -4.15073 7.5841
head 7.22876 -1.72586 3.74139
rclavicle 9.64106e-015 -1.5704e-014
rhumerus 20.2818 23.6652 -75.2737
rradius 77.4918
rwrist 14.86
rhand -9.71307 15.5901
rfingers 7.12502
rthumb 16.2599 -13.7481
lclavicle 9.64106e-015 -1.5704e-014
lhumerus 21.0664 -28.0208 78.1061
lradius 64.291
lwrist -31.9352
lhand -35.4935 45.7531
lfingers 7.12502
lthumb -8.62104 75.5571
rfemur -67.8231 -20.3139 4.23365
rtibia 100.166
rfoot -6.08616 -2.48241
rtoes -0.31375
lfemur -63.5403 20.0008 0.678359
ltibia 95.5669
lfoot -8.61553 -16.4597
ltoes -23.1917
344
root 7.07206 9.52717 -18.0185 -24.6496 -0.609499 0.994123
lowerback 36.7349 2.68399 -2.13434
upperback 12.2845 2.71819 1.33011
thorax -4.74781 1.22695 1.55196
lowerneck -23.6051 -4.77757 -10.7173
upperneck 10.4783 -4.28997 7.47016
head 7.42076 -1.78368 3.65369
rclavicle 2.08724e-015 -1.98785e-016
rhumerus 20.5418 23.3225 -75.2341
rradius 77.4237
rwrist 15.0957
rhand -9.76586 15.6839
rfingers 7.12502
rthumb 16.2091 -13.6585
lclavicle 2.08724e-015 -1.98785e-016
lhumerus 21.5207 -28.2353 77.8865
lradius 64.2919
lwrist -31.8883
lhand -35.2381 45.6136
lfingers 7.12502
lthumb -8.37456 75.4276
rfemur -67.7375 -20.2451 4.40095
rtibia 100.139
rfoot -6.06886 -2.51274
rtoes -0.00867428
lfemur -63.6273 20.0308 0.839994
ltibia 95.6694
lfoot -8.34281 -16.4463
ltoes -21.6459
345
root 7.06798 9.52611 -18.0207 -24.7291 -0.68705 0.819051
lowerback 36.8374 2.65429 -2.10891
upperback 12.1704 2.69387 1.42396
thorax -4.91106 1.21312 1.64104
lowerneck -23.1374 -4.65558 -10.709
upperneck 10.3507 -4.1566 7.36075
head 7.28868 -1.73834 3.63454
rclavicle -1.09332e-015 -4.96962e-015
rhumerus 20.267 23.5628 -75.3567
rradius 77.4539
rwrist 15.1687
rhand -9.76516 15.6253
rfingers 7.12502
rthumb 16.2098 -13.717
lclavicle -1.09332e-015 -4.96962e-015
lhumerus 21.1476 -28.1062 78.1192
lradius 64.2862
lwrist -31.9552
lhand -35.1797 45.5275
lfingers 7.12502
lthumb -8.31822 75.3438
rfemur -67.6797 -20.1711 4.64005
rtibia 100.14
rfoot -6.04318 -2.65761
rtoes -0.0979925
lfemur -63.5732 20.093 1.09468
ltibia 95.6855
lfoot -8.33951 -16.5355
ltoes -21.6707
346
root 7.0683 9.52487 -18.0167 -24.8217 -0.640107 1.01951
lowerback 36.8342 2.7027 -2.31378
upperback 12.259 2.67757 1.36272
thorax -4.81486 1.20107 1.69093
lowerneck -23.2672 -4.65463 -10.7552
upperneck 10.3615 -4.14568 7.47298
head 7.31582 -1.72187 3.68119
rclavicle 8.34896e-015 -3.18055e-015
rhumerus 20.3532 23.5555 -75.3871
rradius 77.5154
rwrist 14.9438
rhand -9.6528 15.7815
rfingers 7.12502
rthumb 16.318 -13.5519
lclavicle 8.34896e-015 -3.18055e-015
lhumerus 21.2827 -27.9786 78.125
lradius 64.1111
lwrist -32.093
lhand -35.5494 45.785
lfingers 7.12502
lthumb -8.67497 75.5867
rfemur -67.5741 -20.1858 4.3924
rtibia 100.116
rfoot -6.04067 -2.65561
rtoes -0.422964
lfemur -63.4146 20.0637 0.913517
ltibia 95.6949
lfoot -8.34759 -16.4791
ltoes -21.672
347
root 7.07044 9.52748 -18.0156 -24.8627 -0.616506 1.10031
lowerback 36.8676 2.71187 -2.348
upperback 12.3091 2.6733 1.32687
thorax -4.76991 1.19872 1.67276
lowerneck -23.5251 -4.73246 -11.104
upperneck 10.5075 -4.18703 7.88062
head 7.42766 -1.71325 3.87096
rclavicle -6.4605e-015 -3.97569e-016
rhumerus 20.4335 23.4871 -75.4154
rradius 77.5556
rwrist 14.7678
rhand -9.50786 15.9461
rfingers 7.12502
rthumb 16.4575 -13.3759
lclavicle -6.4605e-015 -3.97569e-016
lhumerus 21.398 -27.9418 78.119
lradius 64.0224
lwrist -32.13
lhand -35.8882 46.2207
lfingers 7.12502
lthumb -9.00197 76.0086
rfemur -67.4496 -20.1454 4.20122
rtibia 100.092
rfoot -6.00246 -2.55121
rtoes -0.40034
lfemur -63.2929 20.021 0.840288
ltibia 95.6673
lfoot -8.36806 -16.4529
ltoes -21.5096
348
root 7.07083 9.52602 -18.0164 -24.8115 -0.656173 0.994435
lowerback 36.8527 2.70568 -2.21814
upperback 12.2774 2.7128 1.34325
thorax -4.7983 1.22116 1.60811
lowerneck -23.5193 -4.78248 -11.2649
upperneck 10.5223 -4.23653 8.06533
head 7.4452 -1.72613 3.95348
rclavicle -2.82274e-014 4.57205e-015
rhumerus 20.3576 23.3935 -75.4927
rradius 77.5797
rwrist 14.8333
rhand -9.56728 15.7435
rfingers 7.12502
rthumb 16.4003 -13.5831
lclavicle -2.82274e-014 4.57205e-015
lhumerus 21.3997 -27.9883 78.1832
lradius 63.9747
lwrist -32.1619
lhand -35.9663 46.2593
lfingers 7.12502
lthumb -9.07727 76.0439
rfemur -67.5059 -20.1344 4.31797
rtibia 100.122
rfoot -5.99108 -2.51391
rtoes -0.677508
lfemur -63.3736 20.0539 0.963597
ltibia 95.6428
lfoot -8.20709 -16.5941
ltoes -20.7945
349
root 7.07257 9.51905 -18.0109 -24.7817 -0.557772 1.17027
lowerback 36.7562 2.73839 -2.37272
upperback 12.2941 2.69788 1.27149
thorax -4.74757 1.21296 1.62113
lowerneck -23.2956 -4.73122 -10.8611
upperneck 10.2823 -4.24941 7.71128
head 7.31277 -1.75173 3.76459
rclavicle 1.37161e-014 -9.54166e-015
rhumerus 20.3342 23.3299 -75.5851
rradius 77.598
rwrist 14.8973
rhand -9.65252 15.5703
rfingers 7.12502
rthumb 16.3182 -13.7631
lclavicle 1.37161e-014 -9.54166e-015
lhumerus 21.4252 -28.0197 78.1749
lradius 63.9449
lwrist -32.1238
lhand -35.8559 46.1386
lfingers 7.12502
lthumb -8.9708 75.9279
rfemur -67.6329 -20.3101 4.13248
rtibia 100.207
rfoot -6.05854 -2.41838
rtoes -1.23171
lfemur -63.3238 19.9702 0.738181
ltibia 95.5363
lfoot -8.4637 -16.5413
ltoes -22.3778
350
root 7.07211 9.52047 -18.0093 -24.835 -0.446729 1.43391
lowerback 36.7793 2.79956 -2.65815
upperback 12.3015 2.66967 1.20659
thorax -4.75067 1.19456 1.71077
lowerneck -23.1548 -4.67328 -10.5858
upperneck 10.1703 -4.22143 7.43295
head 7.23714 -1.75531 3.62932
rclavicle 3.27995e-015 4.17448e-015
rhumerus 20.3453 23.3346 -75.6563
rradius 77.5984
rwrist 14.7395
rhand -9.53292 15.6771
rfingers 7.12502
rthumb 16.4334 -13.6468
lclavicle 3.27995e-015 4.17448e-015
lhumerus 21.3442 -28.0248 78.1928
lradius 64.0456
lwrist -31.9562
lhand -35.7106 46.1226
lfingers 7.12502
lthumb -8.83054 75.9179
rfemur -67.6339 -20.4129 3.84145
rtibia 100.268
rfoot -6.02727 -2.35994
rtoes -1.58049
lfemur -63.0805 19.8467 0.451078
ltibia 95.3953
lfoot -8.94844 -16.3836
ltoes -24.6836
351
root 7.06951 9.53029 -18.0153 -24.8864 -0.416361 1.5469
lowerback 36.8491 2.85562 -2.83514
upperback 12.2824 2.67562 1.20959
thorax -4.80042 1.19324 1.80145
lowerneck -23.1209 -4.64955 -10.5974
upperneck 10.1641 -4.18482 7.40599
head 7.22581 -1.74148 3.62706
rclavicle -1.23246e-014 1.59028e-015
rhumerus 20.3063 23.3776 -75.6723
rradius 77.5492
rwrist 14.5844
rhand -9.56792 15.8775
rfingers 7.12502
rthumb 16.3997 -13.4492
lclavicle -1.23246e-014 1.59028e-015
lhumerus 21.2644 -27.9713 78.2852
lradius 64.0634
lwrist -32.0223
lhand -35.645 46.0394
lfingers 7.12502
lthumb -8.7672 75.8373
rfemur -67.537 -20.3718 3.72312
rtibia 100.251
rfoot -5.98301 -2.36807
rtoes -1.56643
lfemur -63.0494 19.8159 0.330514
ltibia 95.4402
lfoot -8.65413 -16.3833
ltoes -23.0776
